<svg width="23" height="22" viewBox="0 0 23 22" fill="none" xmlns="http://www.w3.org/2000/svg">
<g id="Property 1=animal">
<path id="Vector" d="M13.2107 0.85293C13.2833 0.360723 13.6614 0 14.1044 0C14.3909 0 14.6583 0.15125 14.8301 0.408289L15.4756 1.375H17.4655C17.9506 1.375 18.4204 1.59242 18.7641 1.97914L19.4478 2.75H21.5866C22.0946 2.75 22.5033 3.21191 22.5033 3.78125V4.8125C22.5033 6.71172 21.136 8.25 19.4478 8.25H16.8009L16.6061 9.56055L12.3284 6.81055L13.2107 0.85293ZM17.6145 2.75C17.2784 2.75 17.0034 3.05766 17.0034 3.4375C17.0034 3.81734 17.2784 4.125 17.6145 4.125C17.9506 4.125 18.2256 3.81734 18.2256 3.4375C18.2256 3.05766 17.9506 2.75 17.6145 2.75ZM16.3923 11.0043V20.625C16.3923 21.3855 15.8461 22 15.1701 22H13.9478C13.2718 22 12.7256 21.3855 12.7256 20.625V15.675C11.7746 16.2035 10.7701 16.5 9.67013 16.5C8.57014 16.5 7.53126 16.2035 6.61461 15.675V20.625C6.61461 21.3855 6.06844 22 5.3924 22H4.1702C3.49531 22 2.94799 21.3855 2.94799 20.625V10.7336C1.84915 10.2652 0.986348 9.2168 0.688282 7.87617L0.540082 7.21016C0.376352 6.47109 0.774524 5.72344 1.4294 5.5043C2.08404 5.3582 2.74785 5.80508 2.91171 6.53984L3.0599 7.21016C3.19587 7.82031 3.68475 8.21133 4.24544 8.21133H12.1069L16.3923 11.0043Z" fill="#0065FC"/>
</g>
</svg>
